<?xml version="1.0" encoding="UTF-8"?>
<svg id="_レイヤー_2" data-name="レイヤー 2" xmlns="http://www.w3.org/2000/svg" viewBox="0 0 17.45 23.39">
  <defs>
    <style>
      .cls-1 {
        stroke-width: .72px;
      }

      .cls-1, .cls-2 {
        fill: none;
        stroke: #000;
        stroke-linejoin: round;
      }

      .cls-2 {
        stroke-width: .77px;
      }

      .cls-3, .cls-4, .cls-5, .cls-6 {
        fill-rule: evenodd;
      }

      .cls-4 {
        fill: #ffeddc;
      }

      .cls-5 {
        fill: #555;
      }

      .cls-6 {
        fill: #f2aff2;
      }
    </style>
  </defs>
  <g id="_レイヤー_1-2" data-name="レイヤー 1">
    <g>
      <path class="cls-5" d="M16.65,8.69c0-4.38-3.55-7.93-7.93-7.93S.8,4.32.8,8.69v3.14c0,4.38,3.55,7.93,7.93,7.93s7.93-3.55,7.93-7.93v-3.14h0Z"/>
      <path class="cls-3" d="M16.65,8.69v3.14c0,4.38-3.55,7.93-7.93,7.93S.8,16.21.8,11.84v-3.14C.8,4.32,4.35.77,8.73.77s7.93,3.55,7.93,7.93h0ZM15.88,8.69c0-3.95-3.2-7.16-7.16-7.16S1.57,4.74,1.57,8.69v3.14c0,3.95,3.2,7.16,7.16,7.16s7.16-3.2,7.16-7.16v-3.14h0Z"/>
      <path class="cls-6" d="M17.07,21.6c0,.77-3.18,1.4-7.11,1.4h-2.46c-3.93,0-7.11-.63-7.11-1.4v-.65c0-3.48,2.82-6.3,6.3-6.3h4.08c3.48,0,6.3,2.82,6.3,6.3v.65h0Z"/>
      <path class="cls-2" d="M17.07,21.6c0,.77-3.18,1.4-7.11,1.4h-2.46c-3.93,0-7.11-.63-7.11-1.4v-.65c0-3.48,2.82-6.3,6.3-6.3h4.08c3.48,0,6.3,2.82,6.3,6.3v.65h0Z"/>
      <path class="cls-4" d="M15.85,7.89c0-3.93-3.19-7.12-7.12-7.12S1.6,3.96,1.6,7.89s3.19,7.12,7.12,7.12,7.12-3.19,7.12-7.12h0Z"/>
      <path class="cls-3" d="M16.61,7.89c0,4.35-3.53,7.89-7.89,7.89S.84,12.24.84,7.89,4.37,0,8.73,0s7.89,3.53,7.89,7.89h0ZM15.85,7.89c0-3.93-3.19-7.12-7.12-7.12S1.6,3.96,1.6,7.89s3.19,7.12,7.12,7.12,7.12-3.19,7.12-7.12h0Z"/>
      <path class="cls-3" d="M5.47,8.17c.47,0,.86.39.86.86s-.39.86-.86.86-.86-.39-.86-.86.39-.86.86-.86h0Z"/>
      <path class="cls-3" d="M11.98,8.17c.47,0,.86.39.86.86s-.39.86-.86.86-.86-.39-.86-.86.39-.86.86-.86h0Z"/>
      <path class="cls-5" d="M1.32,7.93s0-.03,0-.04C1.32,3.8,4.64.48,8.73.48s7.41,3.32,7.41,7.41c0,.02,0,.03,0,.05-.03,0-.05,0-.08,0h0c-3.21,0-6.3-1.2-8.66-3.35-.26.36-.55.71-.87,1.03-1.39,1.39-3.24,2.21-5.2,2.31h0Z"/>
      <path class="cls-1" d="M1.32,7.93s0-.03,0-.04C1.32,3.8,4.64.48,8.73.48s7.41,3.32,7.41,7.41c0,.02,0,.03,0,.05-.03,0-.05,0-.08,0h0c-3.21,0-6.3-1.2-8.66-3.35-.26.36-.55.71-.87,1.03-1.39,1.39-3.24,2.21-5.2,2.31h0Z"/>
    </g>
  </g>
</svg>