<?xml version="1.0" encoding="UTF-8"?>
<svg id="_レイヤー_2" data-name="レイヤー 2" xmlns="http://www.w3.org/2000/svg" viewBox="0 0 16.66 23.4">
  <defs>
    <style>
      .cls-1 {
        fill: #3581ef;
      }

      .cls-1, .cls-2, .cls-3, .cls-4 {
        fill-rule: evenodd;
      }

      .cls-5 {
        fill: none;
        stroke: #000;
        stroke-linejoin: round;
        stroke-width: .73px;
      }

      .cls-3 {
        fill: #ffeddc;
      }

      .cls-4 {
        fill: #555;
      }
    </style>
  </defs>
  <g id="_レイヤー_1-2" data-name="レイヤー 1">
    <g>
      <path class="cls-1" d="M16.3,21.7c0,.74-3.04,1.34-6.79,1.34h-2.35c-3.75,0-6.79-.6-6.79-1.34v-.62c0-3.32,2.7-6.02,6.02-6.02h3.9c3.32,0,6.02,2.7,6.02,6.02v.62h0Z"/>
      <path class="cls-5" d="M16.3,21.7c0,.74-3.04,1.34-6.79,1.34h-2.35c-3.75,0-6.79-.6-6.79-1.34v-.62c0-3.32,2.7-6.02,6.02-6.02h3.9c3.32,0,6.02,2.7,6.02,6.02v.62h0Z"/>
      <path class="cls-3" d="M15.13,8.6c0-3.75-3.05-6.8-6.8-6.8S1.53,4.84,1.53,8.6s3.05,6.8,6.8,6.8,6.8-3.05,6.8-6.8h0Z"/>
      <path class="cls-2" d="M15.87,8.6c0,4.16-3.38,7.53-7.53,7.53S.8,12.76.8,8.6,4.17,1.07,8.33,1.07s7.53,3.38,7.53,7.53h0ZM15.13,8.6c0-3.75-3.05-6.8-6.8-6.8S1.53,4.84,1.53,8.6s3.05,6.8,6.8,6.8,6.8-3.05,6.8-6.8h0Z"/>
      <path class="cls-2" d="M5.22,8.87c.45,0,.82.37.82.82s-.37.82-.82.82-.82-.37-.82-.82.37-.82.82-.82h0Z"/>
      <path class="cls-2" d="M11.44,8.87c.45,0,.82.37.82.82s-.37.82-.82.82-.82-.37-.82-.82.37-.82.82-.82h0Z"/>
      <path class="cls-4" d="M5.48,4.73c-1.68-.6-2.78,4.4-4.5,4.23-.17-.02-.47-1.58-.33-3.06.13-1.38,1-2.98,2-3.92.51-.48,1.78-1.18,2.8-.97.88-.57,3.38-1.85,6.44-.22,2.46,1.31,3.92,3.4,4.1,5.45.09,1.06-.19,2.5-.44,2.42-1.22-.36-2.45-.96-3.98-2.07-2.94-2.14-4.33-2.72-4.89-2.59-.38.09-.92.43-1.19.71h0Z"/>
      <path class="cls-2" d="M5.48,4.73c-1.68-.6-2.78,4.4-4.5,4.23-.17-.02-.47-1.58-.33-3.06.13-1.38,1-2.98,2-3.92.51-.48,1.78-1.18,2.8-.97.88-.57,3.38-1.85,6.44-.22,2.46,1.31,3.92,3.4,4.1,5.45.09,1.06-.19,2.5-.44,2.42-1.22-.36-2.45-.96-3.98-2.07-2.94-2.14-4.33-2.72-4.89-2.59-.38.09-.92.43-1.19.71h0ZM1.44,8s.09-.09.14-.15c.52-.59.99-1.5,1.48-2.24.41-.62.84-1.14,1.28-1.41.3-.18.61-.27.93-.26h0c.37-.29.87-.56,1.25-.65.31-.07.82-.04,1.57.28.83.36,2.09,1.1,3.92,2.43,1.18.86,2.18,1.4,3.14,1.75.07-.41.16-1.02.12-1.45-.16-1.84-1.51-3.69-3.71-4.87C8.84,0,6.63,1.14,5.85,1.64c-.16.1-.36.14-.55.1-.79-.16-1.76.42-2.15.79-.88.82-1.65,2.23-1.77,3.45-.07.73-.03,1.49.06,2.02h0Z"/>
    </g>
  </g>
</svg>