<svg xmlns="http://www.w3.org/2000/svg" xmlns:xlink="http://www.w3.org/1999/xlink" width="90" zoomAndPan="magnify" viewBox="0 0 67.5 83.999999" height="112" preserveAspectRatio="xMidYMid meet" version="1.0"><defs><clipPath id="31ecefc7ec"><path d="M 0.738281 9.234375 L 66.253906 9.234375 L 66.253906 74.75 L 0.738281 74.75 Z M 0.738281 9.234375 " clip-rule="nonzero"/></clipPath><clipPath id="30fad7968d"><path d="M 62.089844 9.234375 L 4.898438 9.234375 C 2.605469 9.234375 0.738281 11.101562 0.738281 13.398438 L 0.738281 29.09375 C 0.738281 31.390625 2.605469 33.257812 4.898438 33.257812 L 62.089844 33.257812 C 64.386719 33.257812 66.253906 31.390625 66.253906 29.09375 L 66.253906 13.398438 C 66.253906 11.101562 64.386719 9.234375 62.089844 9.234375 Z M 64.070312 29.09375 C 64.070312 30.1875 63.179688 31.074219 62.089844 31.074219 L 4.898438 31.074219 C 3.808594 31.074219 2.921875 30.1875 2.921875 29.09375 L 2.921875 13.398438 C 2.921875 12.308594 3.808594 11.417969 4.898438 11.417969 L 62.089844 11.417969 C 63.179688 11.417969 64.070312 12.308594 64.070312 13.398438 Z M 40.210938 18.621094 L 36.261719 18.015625 L 34.484375 14.230469 C 34.304688 13.847656 33.917969 13.601562 33.496094 13.601562 C 33.070312 13.601562 32.6875 13.847656 32.507812 14.230469 L 30.730469 18.015625 L 26.777344 18.621094 C 26.375 18.683594 26.039062 18.964844 25.90625 19.351562 C 25.777344 19.742188 25.875 20.167969 26.160156 20.460938 L 29.054688 23.425781 L 28.367188 27.621094 C 28.300781 28.035156 28.476562 28.449219 28.816406 28.691406 C 29.160156 28.929688 29.609375 28.957031 29.972656 28.753906 L 33.496094 26.808594 L 37.015625 28.753906 C 37.179688 28.84375 37.363281 28.890625 37.542969 28.890625 C 37.765625 28.890625 37.984375 28.824219 38.171875 28.691406 C 38.515625 28.449219 38.6875 28.035156 38.621094 27.621094 L 37.9375 23.425781 L 40.828125 20.460938 C 41.113281 20.167969 41.210938 19.742188 41.082031 19.351562 C 40.953125 18.964844 40.617188 18.683594 40.210938 18.621094 Z M 35.988281 22.296875 C 35.746094 22.542969 35.636719 22.890625 35.691406 23.234375 L 36.105469 25.753906 L 34.023438 24.605469 C 33.859375 24.511719 33.675781 24.46875 33.496094 24.46875 C 33.3125 24.46875 33.132812 24.511719 32.964844 24.605469 L 30.886719 25.753906 L 31.296875 23.234375 C 31.351562 22.890625 31.242188 22.542969 31 22.296875 L 29.210938 20.457031 L 31.636719 20.089844 C 31.996094 20.03125 32.304688 19.800781 32.457031 19.472656 L 33.496094 17.265625 L 34.53125 19.472656 C 34.6875 19.800781 34.996094 20.03125 35.355469 20.089844 L 37.78125 20.457031 Z M 58.773438 18.621094 L 54.824219 18.015625 L 53.046875 14.230469 C 52.867188 13.847656 52.480469 13.601562 52.058594 13.601562 C 51.632812 13.601562 51.25 13.847656 51.070312 14.230469 L 49.292969 18.015625 L 45.339844 18.621094 C 44.9375 18.683594 44.601562 18.964844 44.46875 19.351562 C 44.339844 19.742188 44.4375 20.167969 44.722656 20.460938 L 47.617188 23.425781 L 46.929688 27.621094 C 46.863281 28.035156 47.039062 28.449219 47.378906 28.691406 C 47.722656 28.929688 48.171875 28.957031 48.535156 28.753906 L 52.058594 26.808594 L 55.578125 28.753906 C 55.742188 28.84375 55.925781 28.890625 56.105469 28.890625 C 56.328125 28.890625 56.546875 28.824219 56.734375 28.691406 C 57.078125 28.449219 57.25 28.035156 57.183594 27.621094 L 56.5 23.425781 L 59.390625 20.460938 C 59.675781 20.167969 59.773438 19.742188 59.644531 19.351562 C 59.515625 18.964844 59.179688 18.683594 58.773438 18.621094 Z M 54.550781 22.296875 C 54.308594 22.542969 54.199219 22.890625 54.253906 23.234375 L 54.667969 25.753906 L 52.585938 24.605469 C 52.421875 24.511719 52.238281 24.46875 52.058594 24.46875 C 51.875 24.46875 51.695312 24.511719 51.527344 24.605469 L 49.449219 25.753906 L 49.859375 23.234375 C 49.914062 22.890625 49.804688 22.542969 49.5625 22.296875 L 47.773438 20.457031 L 50.199219 20.089844 C 50.558594 20.03125 50.867188 19.800781 51.019531 19.472656 L 52.058594 17.265625 L 53.09375 19.472656 C 53.25 19.800781 53.558594 20.03125 53.917969 20.089844 L 56.34375 20.457031 Z M 22.742188 18.621094 L 18.789062 18.015625 L 17.011719 14.230469 C 16.832031 13.847656 16.449219 13.601562 16.023438 13.601562 C 15.601562 13.601562 15.214844 13.847656 15.035156 14.230469 L 13.257812 18.015625 L 9.308594 18.621094 C 8.902344 18.683594 8.566406 18.964844 8.4375 19.351562 C 8.308594 19.742188 8.40625 20.167969 8.691406 20.460938 L 11.582031 23.425781 L 10.898438 27.621094 C 10.832031 28.035156 11.003906 28.449219 11.347656 28.691406 C 11.6875 28.929688 12.136719 28.957031 12.503906 28.753906 L 16.023438 26.808594 L 19.546875 28.753906 C 19.710938 28.84375 19.890625 28.890625 20.074219 28.890625 C 20.292969 28.890625 20.515625 28.824219 20.703125 28.691406 C 21.042969 28.449219 21.21875 28.035156 21.152344 27.621094 L 20.464844 23.425781 L 23.355469 20.460938 C 23.644531 20.167969 23.742188 19.742188 23.609375 19.351562 C 23.480469 18.964844 23.144531 18.683594 22.742188 18.621094 Z M 18.519531 22.296875 C 18.277344 22.542969 18.167969 22.890625 18.222656 23.234375 L 18.632812 25.753906 L 16.550781 24.605469 C 16.386719 24.511719 16.207031 24.46875 16.023438 24.46875 C 15.84375 24.46875 15.660156 24.511719 15.496094 24.605469 L 13.414062 25.753906 L 13.828125 23.234375 C 13.882812 22.890625 13.773438 22.542969 13.53125 22.296875 L 11.738281 20.457031 L 14.164062 20.089844 C 14.523438 20.03125 14.832031 19.800781 14.988281 19.472656 L 16.023438 17.265625 L 17.058594 19.472656 C 17.214844 19.800781 17.523438 20.03125 17.882812 20.089844 L 20.308594 20.457031 Z M 29.128906 45.269531 L 24.121094 45.269531 C 24.074219 45.269531 24.035156 45.25 24.007812 45.214844 C 23.976562 45.175781 23.96875 45.132812 23.976562 45.085938 L 24.917969 40.855469 C 25.214844 39.519531 24.890625 38.144531 24.027344 37.082031 C 23.160156 36.019531 21.878906 35.421875 20.511719 35.441406 C 19.308594 35.457031 18.246094 36.246094 17.859375 37.398438 L 16.410156 41.746094 C 15.652344 44.023438 13.828125 45.738281 11.519531 46.359375 L 9.472656 46.359375 C 9.472656 45.757812 8.984375 45.269531 8.382812 45.269531 L 1.828125 45.269531 C 1.226562 45.269531 0.738281 45.757812 0.738281 46.359375 L 0.738281 63.832031 C 0.738281 64.433594 1.226562 64.921875 1.828125 64.921875 L 8.382812 64.921875 C 8.984375 64.921875 9.472656 64.433594 9.472656 63.832031 L 9.472656 62.738281 L 9.503906 62.738281 C 10.792969 62.738281 12.054688 62.980469 13.25 63.460938 L 14.800781 64.082031 C 16.199219 64.640625 17.667969 64.921875 19.171875 64.921875 L 28.035156 64.921875 C 29.839844 64.921875 31.3125 63.453125 31.3125 61.648438 C 31.3125 61.0625 31.15625 60.515625 30.890625 60.039062 C 31.800781 59.457031 32.402344 58.4375 32.402344 57.28125 C 32.402344 56.441406 32.085938 55.675781 31.566406 55.097656 C 32.085938 54.515625 32.402344 53.75 32.402344 52.914062 C 32.402344 52.074219 32.085938 51.308594 31.566406 50.726562 C 32.085938 50.148438 32.402344 49.382812 32.402344 48.542969 C 32.402344 46.738281 30.933594 45.269531 29.128906 45.269531 Z M 7.289062 62.738281 L 2.921875 62.738281 L 2.921875 47.453125 L 7.289062 47.453125 Z M 29.128906 51.820312 C 29.730469 51.820312 30.21875 52.308594 30.21875 52.914062 C 30.21875 53.515625 29.730469 54.003906 29.128906 54.003906 C 28.523438 54.003906 28.035156 54.492188 28.035156 55.097656 C 28.035156 55.699219 28.523438 56.1875 29.128906 56.1875 C 29.730469 56.1875 30.21875 56.679688 30.21875 57.28125 C 30.21875 57.882812 29.730469 58.371094 29.128906 58.371094 L 28.035156 58.371094 C 27.433594 58.371094 26.945312 58.859375 26.945312 59.464844 C 26.945312 60.066406 27.433594 60.554688 28.035156 60.554688 C 28.636719 60.554688 29.128906 61.046875 29.128906 61.648438 C 29.128906 62.25 28.636719 62.738281 28.035156 62.738281 L 19.171875 62.738281 C 17.949219 62.738281 16.75 62.507812 15.613281 62.054688 L 14.058594 61.433594 C 12.605469 60.851562 11.070312 60.554688 9.503906 60.554688 L 9.472656 60.554688 L 9.472656 48.542969 L 11.65625 48.542969 C 11.746094 48.542969 11.835938 48.535156 11.921875 48.511719 C 15.019531 47.738281 17.472656 45.464844 18.484375 42.433594 L 19.933594 38.089844 C 20.023438 37.816406 20.269531 37.628906 20.542969 37.625 C 20.550781 37.625 20.5625 37.625 20.574219 37.625 C 21.257812 37.625 21.898438 37.929688 22.332031 38.460938 C 22.769531 39 22.9375 39.703125 22.785156 40.382812 L 21.84375 44.613281 C 21.691406 45.308594 21.859375 46.023438 22.300781 46.578125 C 22.746094 47.132812 23.410156 47.453125 24.121094 47.453125 L 29.128906 47.453125 C 29.730469 47.453125 30.21875 47.941406 30.21875 48.542969 C 30.21875 49.144531 29.730469 49.636719 29.128906 49.636719 C 28.523438 49.636719 28.035156 50.125 28.035156 50.726562 C 28.035156 51.332031 28.523438 51.820312 29.128906 51.820312 Z M 4.015625 60.554688 C 4.015625 59.953125 4.503906 59.464844 5.105469 59.464844 L 5.109375 59.464844 C 5.710938 59.464844 6.199219 59.953125 6.199219 60.554688 C 6.199219 61.160156 5.710938 61.648438 5.109375 61.648438 C 4.503906 61.648438 4.015625 61.160156 4.015625 60.554688 Z M 65.160156 45.269531 L 58.609375 45.269531 C 58.007812 45.269531 57.515625 45.757812 57.515625 46.359375 L 57.515625 47.453125 L 57.484375 47.453125 C 56.195312 47.453125 54.9375 47.210938 53.742188 46.730469 L 52.1875 46.109375 C 50.792969 45.550781 49.320312 45.269531 47.816406 45.269531 L 38.953125 45.269531 C 37.148438 45.269531 35.679688 46.738281 35.679688 48.542969 C 35.679688 49.128906 35.832031 49.675781 36.101562 50.152344 C 35.191406 50.734375 34.585938 51.753906 34.585938 52.914062 C 34.585938 53.75 34.902344 54.515625 35.421875 55.097656 C 34.902344 55.675781 34.585938 56.441406 34.585938 57.28125 C 34.585938 58.117188 34.902344 58.882812 35.421875 59.464844 C 34.902344 60.042969 34.585938 60.808594 34.585938 61.648438 C 34.585938 63.453125 36.054688 64.921875 37.863281 64.921875 L 42.867188 64.921875 C 42.914062 64.921875 42.953125 64.941406 42.984375 64.980469 C 43.011719 65.015625 43.023438 65.058594 43.011719 65.105469 L 42.070312 69.335938 C 41.773438 70.671875 42.101562 72.046875 42.964844 73.109375 C 43.816406 74.15625 45.070312 74.75 46.414062 74.75 C 46.4375 74.75 46.457031 74.75 46.480469 74.75 C 47.679688 74.734375 48.746094 73.949219 49.128906 72.792969 L 50.578125 68.449219 C 51.335938 66.171875 53.160156 64.453125 55.472656 63.832031 L 57.515625 63.832031 C 57.515625 64.433594 58.007812 64.921875 58.609375 64.921875 L 65.160156 64.921875 C 65.761719 64.921875 66.253906 64.433594 66.253906 63.832031 L 66.253906 46.359375 C 66.253906 45.757812 65.761719 45.269531 65.160156 45.269531 Z M 55.332031 61.648438 C 55.242188 61.648438 55.15625 61.660156 55.066406 61.679688 C 51.96875 62.453125 49.515625 64.726562 48.507812 67.757812 L 47.058594 72.105469 C 46.964844 72.375 46.722656 72.5625 46.449219 72.566406 C 46.4375 72.566406 46.425781 72.566406 46.417969 72.566406 C 45.730469 72.566406 45.089844 72.261719 44.660156 71.730469 C 44.21875 71.191406 44.054688 70.492188 44.203125 69.808594 L 45.144531 65.578125 C 45.300781 64.882812 45.132812 64.167969 44.6875 63.613281 C 44.242188 63.058594 43.578125 62.738281 42.867188 62.738281 L 37.863281 62.738281 C 37.261719 62.738281 36.769531 62.25 36.769531 61.648438 C 36.769531 61.046875 37.261719 60.554688 37.863281 60.554688 C 38.464844 60.554688 38.953125 60.066406 38.953125 59.464844 C 38.953125 58.859375 38.464844 58.371094 37.863281 58.371094 C 37.261719 58.371094 36.769531 57.882812 36.769531 57.28125 C 36.769531 56.679688 37.261719 56.1875 37.863281 56.1875 C 38.464844 56.1875 38.953125 55.699219 38.953125 55.097656 C 38.953125 54.492188 38.464844 54.003906 37.863281 54.003906 C 37.261719 54.003906 36.769531 53.515625 36.769531 52.914062 C 36.769531 52.308594 37.261719 51.820312 37.863281 51.820312 L 38.953125 51.820312 C 39.558594 51.820312 40.046875 51.332031 40.046875 50.726562 C 40.046875 50.125 39.558594 49.636719 38.953125 49.636719 C 38.351562 49.636719 37.863281 49.148438 37.863281 48.542969 C 37.863281 47.941406 38.351562 47.453125 38.953125 47.453125 L 47.816406 47.453125 C 49.042969 47.453125 50.238281 47.683594 51.375 48.136719 L 52.929688 48.757812 C 54.386719 49.339844 55.917969 49.636719 57.484375 49.636719 L 57.515625 49.636719 L 57.515625 61.648438 Z M 64.070312 62.738281 L 59.699219 62.738281 L 59.699219 47.453125 L 64.070312 47.453125 Z M 60.792969 49.636719 C 60.792969 49.035156 61.28125 48.542969 61.886719 48.542969 C 62.492188 48.542969 62.980469 49.035156 62.980469 49.636719 C 62.980469 50.238281 62.492188 50.726562 61.886719 50.726562 C 61.285156 50.726562 60.792969 50.238281 60.792969 49.636719 Z M 60.792969 49.636719 " clip-rule="nonzero"/></clipPath><linearGradient x1="1.298986" gradientTransform="matrix(0.136489, 0, 0, 0.136489, -1.446266, 7.051899)" y1="481.298912" x2="481.299517" gradientUnits="userSpaceOnUse" y2="1.299504" id="0f9f3b427f"><stop stop-opacity="1" stop-color="rgb(36.859131%, 73.728943%, 89.7995%)" offset="0"/><stop stop-opacity="1" stop-color="rgb(36.859131%, 73.728943%, 89.7995%)" offset="0.0625"/><stop stop-opacity="1" stop-color="rgb(36.859131%, 73.728943%, 89.7995%)" offset="0.078125"/><stop stop-opacity="1" stop-color="rgb(37.088013%, 73.551941%, 89.801025%)" offset="0.0820313"/><stop stop-opacity="1" stop-color="rgb(37.316895%, 73.376465%, 89.804077%)" offset="0.0859375"/><stop stop-opacity="1" stop-color="rgb(37.611389%, 73.147583%, 89.807129%)" offset="0.0898438"/><stop stop-opacity="1" stop-color="rgb(37.905884%, 72.920227%, 89.811707%)" offset="0.09375"/><stop stop-opacity="1" stop-color="rgb(38.200378%, 72.691345%, 89.814758%)" offset="0.0976563"/><stop stop-opacity="1" stop-color="rgb(38.496399%, 72.463989%, 89.81781%)" offset="0.101563"/><stop stop-opacity="1" stop-color="rgb(38.790894%, 72.235107%, 89.820862%)" offset="0.105469"/><stop stop-opacity="1" stop-color="rgb(39.086914%, 72.007751%, 89.825439%)" offset="0.109375"/><stop stop-opacity="1" stop-color="rgb(39.381409%, 71.780396%, 89.828491%)" offset="0.113281"/><stop stop-opacity="1" stop-color="rgb(39.675903%, 71.55304%, 89.831543%)" offset="0.117188"/><stop stop-opacity="1" stop-color="rgb(39.970398%, 71.324158%, 89.834595%)" offset="0.121094"/><stop stop-opacity="1" stop-color="rgb(40.266418%, 71.096802%, 89.839172%)" offset="0.125"/><stop stop-opacity="1" stop-color="rgb(40.560913%, 70.86792%, 89.842224%)" offset="0.128906"/><stop stop-opacity="1" stop-color="rgb(40.855408%, 70.640564%, 89.845276%)" offset="0.132812"/><stop stop-opacity="1" stop-color="rgb(41.149902%, 70.411682%, 89.848328%)" offset="0.136719"/><stop stop-opacity="1" stop-color="rgb(41.445923%, 70.184326%, 89.852905%)" offset="0.140625"/><stop stop-opacity="1" stop-color="rgb(41.740417%, 69.95697%, 89.855957%)" offset="0.144531"/><stop stop-opacity="1" stop-color="rgb(42.034912%, 69.729614%, 89.859009%)" offset="0.148438"/><stop stop-opacity="1" stop-color="rgb(42.329407%, 69.500732%, 89.862061%)" offset="0.152344"/><stop stop-opacity="1" stop-color="rgb(42.625427%, 69.273376%, 89.866638%)" offset="0.15625"/><stop stop-opacity="1" stop-color="rgb(42.919922%, 69.044495%, 89.86969%)" offset="0.160156"/><stop stop-opacity="1" stop-color="rgb(43.215942%, 68.817139%, 89.872742%)" offset="0.164063"/><stop stop-opacity="1" stop-color="rgb(43.510437%, 68.588257%, 89.875793%)" offset="0.167969"/><stop stop-opacity="1" stop-color="rgb(43.804932%, 68.360901%, 89.880371%)" offset="0.171875"/><stop stop-opacity="1" stop-color="rgb(44.099426%, 68.132019%, 89.883423%)" offset="0.175781"/><stop stop-opacity="1" stop-color="rgb(44.395447%, 67.904663%, 89.886475%)" offset="0.179688"/><stop stop-opacity="1" stop-color="rgb(44.689941%, 67.677307%, 89.889526%)" offset="0.183594"/><stop stop-opacity="1" stop-color="rgb(44.984436%, 67.449951%, 89.894104%)" offset="0.1875"/><stop stop-opacity="1" stop-color="rgb(45.278931%, 67.221069%, 89.897156%)" offset="0.191406"/><stop stop-opacity="1" stop-color="rgb(45.574951%, 66.993713%, 89.900208%)" offset="0.195312"/><stop stop-opacity="1" stop-color="rgb(45.869446%, 66.764832%, 89.903259%)" offset="0.199219"/><stop stop-opacity="1" stop-color="rgb(46.165466%, 66.537476%, 89.907837%)" offset="0.203125"/><stop stop-opacity="1" stop-color="rgb(46.459961%, 66.308594%, 89.910889%)" offset="0.207031"/><stop stop-opacity="1" stop-color="rgb(46.754456%, 66.081238%, 89.91394%)" offset="0.210938"/><stop stop-opacity="1" stop-color="rgb(47.04895%, 65.853882%, 89.916992%)" offset="0.214844"/><stop stop-opacity="1" stop-color="rgb(47.344971%, 65.626526%, 89.920044%)" offset="0.21875"/><stop stop-opacity="1" stop-color="rgb(47.639465%, 65.397644%, 89.923096%)" offset="0.222656"/><stop stop-opacity="1" stop-color="rgb(47.93396%, 65.170288%, 89.927673%)" offset="0.226563"/><stop stop-opacity="1" stop-color="rgb(48.228455%, 64.941406%, 89.930725%)" offset="0.230469"/><stop stop-opacity="1" stop-color="rgb(48.524475%, 64.71405%, 89.933777%)" offset="0.234375"/><stop stop-opacity="1" stop-color="rgb(48.81897%, 64.485168%, 89.936829%)" offset="0.238281"/><stop stop-opacity="1" stop-color="rgb(49.113464%, 64.257812%, 89.941406%)" offset="0.242188"/><stop stop-opacity="1" stop-color="rgb(49.407959%, 64.030457%, 89.944458%)" offset="0.246094"/><stop stop-opacity="1" stop-color="rgb(49.703979%, 63.803101%, 89.94751%)" offset="0.25"/><stop stop-opacity="1" stop-color="rgb(49.998474%, 63.574219%, 89.950562%)" offset="0.253906"/><stop stop-opacity="1" stop-color="rgb(50.294495%, 63.346863%, 89.955139%)" offset="0.257812"/><stop stop-opacity="1" stop-color="rgb(50.588989%, 63.117981%, 89.958191%)" offset="0.261719"/><stop stop-opacity="1" stop-color="rgb(50.883484%, 62.890625%, 89.961243%)" offset="0.265625"/><stop stop-opacity="1" stop-color="rgb(51.177979%, 62.661743%, 89.964294%)" offset="0.269531"/><stop stop-opacity="1" stop-color="rgb(51.473999%, 62.434387%, 89.968872%)" offset="0.273438"/><stop stop-opacity="1" stop-color="rgb(51.768494%, 62.207031%, 89.971924%)" offset="0.277344"/><stop stop-opacity="1" stop-color="rgb(52.062988%, 61.979675%, 89.974976%)" offset="0.28125"/><stop stop-opacity="1" stop-color="rgb(52.357483%, 61.750793%, 89.978027%)" offset="0.285156"/><stop stop-opacity="1" stop-color="rgb(52.653503%, 61.523438%, 89.982605%)" offset="0.289063"/><stop stop-opacity="1" stop-color="rgb(52.947998%, 61.294556%, 89.985657%)" offset="0.292969"/><stop stop-opacity="1" stop-color="rgb(53.244019%, 61.0672%, 89.988708%)" offset="0.296875"/><stop stop-opacity="1" stop-color="rgb(53.538513%, 60.838318%, 89.99176%)" offset="0.300781"/><stop stop-opacity="1" stop-color="rgb(53.833008%, 60.610962%, 89.996338%)" offset="0.304687"/><stop stop-opacity="1" stop-color="rgb(54.127502%, 60.383606%, 89.99939%)" offset="0.308594"/><stop stop-opacity="1" stop-color="rgb(54.423523%, 60.15625%, 90.002441%)" offset="0.3125"/><stop stop-opacity="1" stop-color="rgb(54.718018%, 59.927368%, 90.005493%)" offset="0.316406"/><stop stop-opacity="1" stop-color="rgb(55.012512%, 59.700012%, 90.010071%)" offset="0.320312"/><stop stop-opacity="1" stop-color="rgb(55.307007%, 59.47113%, 90.013123%)" offset="0.324219"/><stop stop-opacity="1" stop-color="rgb(55.603027%, 59.243774%, 90.016174%)" offset="0.328125"/><stop stop-opacity="1" stop-color="rgb(55.897522%, 59.014893%, 90.019226%)" offset="0.332031"/><stop stop-opacity="1" stop-color="rgb(56.192017%, 58.787537%, 90.023804%)" offset="0.335938"/><stop stop-opacity="1" stop-color="rgb(56.486511%, 58.558655%, 90.026855%)" offset="0.339844"/><stop stop-opacity="1" stop-color="rgb(56.782532%, 58.331299%, 90.029907%)" offset="0.34375"/><stop stop-opacity="1" stop-color="rgb(57.077026%, 58.103943%, 90.032959%)" offset="0.347656"/><stop stop-opacity="1" stop-color="rgb(57.373047%, 57.876587%, 90.037537%)" offset="0.351562"/><stop stop-opacity="1" stop-color="rgb(57.667542%, 57.647705%, 90.040588%)" offset="0.355469"/><stop stop-opacity="1" stop-color="rgb(57.962036%, 57.420349%, 90.04364%)" offset="0.359375"/><stop stop-opacity="1" stop-color="rgb(58.256531%, 57.191467%, 90.046692%)" offset="0.363281"/><stop stop-opacity="1" stop-color="rgb(58.552551%, 56.964111%, 90.05127%)" offset="0.367188"/><stop stop-opacity="1" stop-color="rgb(58.847046%, 56.735229%, 90.054321%)" offset="0.371094"/><stop stop-opacity="1" stop-color="rgb(59.141541%, 56.507874%, 90.057373%)" offset="0.375"/><stop stop-opacity="1" stop-color="rgb(59.436035%, 56.280518%, 90.060425%)" offset="0.378906"/><stop stop-opacity="1" stop-color="rgb(59.732056%, 56.053162%, 90.065002%)" offset="0.382812"/><stop stop-opacity="1" stop-color="rgb(60.02655%, 55.82428%, 90.068054%)" offset="0.386719"/><stop stop-opacity="1" stop-color="rgb(60.322571%, 55.596924%, 90.071106%)" offset="0.390625"/><stop stop-opacity="1" stop-color="rgb(60.617065%, 55.368042%, 90.074158%)" offset="0.394531"/><stop stop-opacity="1" stop-color="rgb(60.91156%, 55.140686%, 90.078735%)" offset="0.398438"/><stop stop-opacity="1" stop-color="rgb(61.206055%, 54.911804%, 90.081787%)" offset="0.402344"/><stop stop-opacity="1" stop-color="rgb(61.502075%, 54.684448%, 90.084839%)" offset="0.40625"/><stop stop-opacity="1" stop-color="rgb(61.79657%, 54.457092%, 90.087891%)" offset="0.410156"/><stop stop-opacity="1" stop-color="rgb(62.091064%, 54.229736%, 90.090942%)" offset="0.414062"/><stop stop-opacity="1" stop-color="rgb(62.385559%, 54.000854%, 90.093994%)" offset="0.417969"/><stop stop-opacity="1" stop-color="rgb(62.68158%, 53.773499%, 90.098572%)" offset="0.421875"/><stop stop-opacity="1" stop-color="rgb(62.976074%, 53.544617%, 90.101624%)" offset="0.425781"/><stop stop-opacity="1" stop-color="rgb(63.272095%, 53.317261%, 90.104675%)" offset="0.429688"/><stop stop-opacity="1" stop-color="rgb(63.566589%, 53.088379%, 90.107727%)" offset="0.433594"/><stop stop-opacity="1" stop-color="rgb(63.861084%, 52.861023%, 90.112305%)" offset="0.4375"/><stop stop-opacity="1" stop-color="rgb(64.155579%, 52.633667%, 90.115356%)" offset="0.441406"/><stop stop-opacity="1" stop-color="rgb(64.451599%, 52.406311%, 90.118408%)" offset="0.445313"/><stop stop-opacity="1" stop-color="rgb(64.746094%, 52.177429%, 90.12146%)" offset="0.449219"/><stop stop-opacity="1" stop-color="rgb(65.040588%, 51.950073%, 90.126038%)" offset="0.453125"/><stop stop-opacity="1" stop-color="rgb(65.335083%, 51.721191%, 90.129089%)" offset="0.457031"/><stop stop-opacity="1" stop-color="rgb(65.631104%, 51.493835%, 90.132141%)" offset="0.460938"/><stop stop-opacity="1" stop-color="rgb(65.925598%, 51.264954%, 90.135193%)" offset="0.464844"/><stop stop-opacity="1" stop-color="rgb(66.220093%, 51.037598%, 90.139771%)" offset="0.46875"/><stop stop-opacity="1" stop-color="rgb(66.514587%, 50.810242%, 90.142822%)" offset="0.472656"/><stop stop-opacity="1" stop-color="rgb(66.810608%, 50.582886%, 90.145874%)" offset="0.476562"/><stop stop-opacity="1" stop-color="rgb(67.105103%, 50.354004%, 90.148926%)" offset="0.480469"/><stop stop-opacity="1" stop-color="rgb(67.401123%, 50.126648%, 90.153503%)" offset="0.484375"/><stop stop-opacity="1" stop-color="rgb(67.695618%, 49.897766%, 90.156555%)" offset="0.488281"/><stop stop-opacity="1" stop-color="rgb(67.990112%, 49.67041%, 90.159607%)" offset="0.492188"/><stop stop-opacity="1" stop-color="rgb(68.284607%, 49.441528%, 90.162659%)" offset="0.496094"/><stop stop-opacity="1" stop-color="rgb(68.580627%, 49.214172%, 90.167236%)" offset="0.5"/><stop stop-opacity="1" stop-color="rgb(68.875122%, 48.986816%, 90.170288%)" offset="0.503906"/><stop stop-opacity="1" stop-color="rgb(69.169617%, 48.75946%, 90.17334%)" offset="0.507812"/><stop stop-opacity="1" stop-color="rgb(69.464111%, 48.530579%, 90.176392%)" offset="0.511719"/><stop stop-opacity="1" stop-color="rgb(69.760132%, 48.303223%, 90.180969%)" offset="0.515625"/><stop stop-opacity="1" stop-color="rgb(70.054626%, 48.074341%, 90.184021%)" offset="0.519531"/><stop stop-opacity="1" stop-color="rgb(70.350647%, 47.846985%, 90.187073%)" offset="0.523438"/><stop stop-opacity="1" stop-color="rgb(70.645142%, 47.618103%, 90.190125%)" offset="0.527344"/><stop stop-opacity="1" stop-color="rgb(70.939636%, 47.390747%, 90.194702%)" offset="0.53125"/><stop stop-opacity="1" stop-color="rgb(71.195984%, 47.19696%, 90.071106%)" offset="0.535156"/><stop stop-opacity="1" stop-color="rgb(71.452332%, 47.0047%, 89.949036%)" offset="0.539062"/><stop stop-opacity="1" stop-color="rgb(71.603394%, 46.903992%, 89.491272%)" offset="0.542969"/><stop stop-opacity="1" stop-color="rgb(71.754456%, 46.80481%, 89.033508%)" offset="0.546875"/><stop stop-opacity="1" stop-color="rgb(71.905518%, 46.704102%, 88.574219%)" offset="0.550781"/><stop stop-opacity="1" stop-color="rgb(72.058105%, 46.604919%, 88.116455%)" offset="0.554688"/><stop stop-opacity="1" stop-color="rgb(72.209167%, 46.504211%, 87.657166%)" offset="0.558594"/><stop stop-opacity="1" stop-color="rgb(72.361755%, 46.405029%, 87.199402%)" offset="0.5625"/><stop stop-opacity="1" stop-color="rgb(72.512817%, 46.304321%, 86.740112%)" offset="0.566406"/><stop stop-opacity="1" stop-color="rgb(72.665405%, 46.205139%, 86.282349%)" offset="0.570312"/><stop stop-opacity="1" stop-color="rgb(72.816467%, 46.104431%, 85.823059%)" offset="0.574219"/><stop stop-opacity="1" stop-color="rgb(72.969055%, 46.005249%, 85.365295%)" offset="0.578125"/><stop stop-opacity="1" stop-color="rgb(73.120117%, 45.904541%, 84.906006%)" offset="0.582031"/><stop stop-opacity="1" stop-color="rgb(73.272705%, 45.805359%, 84.448242%)" offset="0.585937"/><stop stop-opacity="1" stop-color="rgb(73.423767%, 45.704651%, 83.988953%)" offset="0.589844"/><stop stop-opacity="1" stop-color="rgb(73.576355%, 45.605469%, 83.531189%)" offset="0.59375"/><stop stop-opacity="1" stop-color="rgb(73.727417%, 45.504761%, 83.071899%)" offset="0.597656"/><stop stop-opacity="1" stop-color="rgb(73.878479%, 45.405579%, 82.614136%)" offset="0.601562"/><stop stop-opacity="1" stop-color="rgb(74.029541%, 45.304871%, 82.154846%)" offset="0.605469"/><stop stop-opacity="1" stop-color="rgb(74.182129%, 45.205688%, 81.697083%)" offset="0.609375"/><stop stop-opacity="1" stop-color="rgb(74.333191%, 45.10498%, 81.239319%)" offset="0.613281"/><stop stop-opacity="1" stop-color="rgb(74.485779%, 45.005798%, 80.781555%)" offset="0.617187"/><stop stop-opacity="1" stop-color="rgb(74.636841%, 44.90509%, 80.322266%)" offset="0.621094"/><stop stop-opacity="1" stop-color="rgb(74.789429%, 44.805908%, 79.864502%)" offset="0.625"/><stop stop-opacity="1" stop-color="rgb(74.940491%, 44.7052%, 79.405212%)" offset="0.628906"/><stop stop-opacity="1" stop-color="rgb(75.093079%, 44.606018%, 78.947449%)" offset="0.632812"/><stop stop-opacity="1" stop-color="rgb(75.244141%, 44.50531%, 78.488159%)" offset="0.636719"/><stop stop-opacity="1" stop-color="rgb(75.396729%, 44.406128%, 78.030396%)" offset="0.640625"/><stop stop-opacity="1" stop-color="rgb(75.547791%, 44.30542%, 77.571106%)" offset="0.644531"/><stop stop-opacity="1" stop-color="rgb(75.698853%, 44.206238%, 77.113342%)" offset="0.648438"/><stop stop-opacity="1" stop-color="rgb(75.849915%, 44.10553%, 76.654053%)" offset="0.652344"/><stop stop-opacity="1" stop-color="rgb(76.002502%, 44.006348%, 76.196289%)" offset="0.65625"/><stop stop-opacity="1" stop-color="rgb(76.153564%, 43.90564%, 75.737%)" offset="0.660156"/><stop stop-opacity="1" stop-color="rgb(76.306152%, 43.806458%, 75.279236%)" offset="0.664062"/><stop stop-opacity="1" stop-color="rgb(76.457214%, 43.70575%, 74.819946%)" offset="0.667969"/><stop stop-opacity="1" stop-color="rgb(76.609802%, 43.606567%, 74.362183%)" offset="0.671875"/><stop stop-opacity="1" stop-color="rgb(76.760864%, 43.505859%, 73.902893%)" offset="0.675781"/><stop stop-opacity="1" stop-color="rgb(76.913452%, 43.406677%, 73.445129%)" offset="0.679688"/><stop stop-opacity="1" stop-color="rgb(77.064514%, 43.305969%, 72.98584%)" offset="0.683594"/><stop stop-opacity="1" stop-color="rgb(77.217102%, 43.206787%, 72.528076%)" offset="0.6875"/><stop stop-opacity="1" stop-color="rgb(77.368164%, 43.106079%, 72.070312%)" offset="0.691406"/><stop stop-opacity="1" stop-color="rgb(77.519226%, 43.006897%, 71.612549%)" offset="0.695312"/><stop stop-opacity="1" stop-color="rgb(77.670288%, 42.906189%, 71.153259%)" offset="0.699219"/><stop stop-opacity="1" stop-color="rgb(77.822876%, 42.807007%, 70.695496%)" offset="0.703125"/><stop stop-opacity="1" stop-color="rgb(77.973938%, 42.706299%, 70.236206%)" offset="0.707031"/><stop stop-opacity="1" stop-color="rgb(78.126526%, 42.607117%, 69.778442%)" offset="0.710938"/><stop stop-opacity="1" stop-color="rgb(78.277588%, 42.506409%, 69.319153%)" offset="0.714844"/><stop stop-opacity="1" stop-color="rgb(78.430176%, 42.407227%, 68.861389%)" offset="0.71875"/><stop stop-opacity="1" stop-color="rgb(78.581238%, 42.306519%, 68.4021%)" offset="0.722656"/><stop stop-opacity="1" stop-color="rgb(78.733826%, 42.207336%, 67.944336%)" offset="0.726563"/><stop stop-opacity="1" stop-color="rgb(78.884888%, 42.106628%, 67.485046%)" offset="0.730469"/><stop stop-opacity="1" stop-color="rgb(79.037476%, 42.007446%, 67.027283%)" offset="0.734375"/><stop stop-opacity="1" stop-color="rgb(79.188538%, 41.906738%, 66.567993%)" offset="0.738281"/><stop stop-opacity="1" stop-color="rgb(79.3396%, 41.807556%, 66.110229%)" offset="0.742188"/><stop stop-opacity="1" stop-color="rgb(79.490662%, 41.708374%, 65.65094%)" offset="0.746094"/><stop stop-opacity="1" stop-color="rgb(79.64325%, 41.609192%, 65.193176%)" offset="0.75"/><stop stop-opacity="1" stop-color="rgb(79.794312%, 41.508484%, 64.733887%)" offset="0.753906"/><stop stop-opacity="1" stop-color="rgb(79.946899%, 41.409302%, 64.276123%)" offset="0.757812"/><stop stop-opacity="1" stop-color="rgb(80.097961%, 41.308594%, 63.818359%)" offset="0.761719"/><stop stop-opacity="1" stop-color="rgb(80.250549%, 41.209412%, 63.360596%)" offset="0.765625"/><stop stop-opacity="1" stop-color="rgb(80.401611%, 41.108704%, 62.901306%)" offset="0.769531"/><stop stop-opacity="1" stop-color="rgb(80.554199%, 41.009521%, 62.443542%)" offset="0.773437"/><stop stop-opacity="1" stop-color="rgb(80.705261%, 40.908813%, 61.984253%)" offset="0.777344"/><stop stop-opacity="1" stop-color="rgb(80.857849%, 40.809631%, 61.526489%)" offset="0.78125"/><stop stop-opacity="1" stop-color="rgb(81.008911%, 40.708923%, 61.0672%)" offset="0.785156"/><stop stop-opacity="1" stop-color="rgb(81.161499%, 40.609741%, 60.609436%)" offset="0.789062"/><stop stop-opacity="1" stop-color="rgb(81.312561%, 40.509033%, 60.150146%)" offset="0.792969"/><stop stop-opacity="1" stop-color="rgb(81.463623%, 40.409851%, 59.692383%)" offset="0.796875"/><stop stop-opacity="1" stop-color="rgb(81.614685%, 40.309143%, 59.233093%)" offset="0.800781"/><stop stop-opacity="1" stop-color="rgb(81.767273%, 40.209961%, 58.77533%)" offset="0.804688"/><stop stop-opacity="1" stop-color="rgb(81.918335%, 40.109253%, 58.31604%)" offset="0.808594"/><stop stop-opacity="1" stop-color="rgb(82.070923%, 40.010071%, 57.858276%)" offset="0.8125"/><stop stop-opacity="1" stop-color="rgb(82.221985%, 39.909363%, 57.398987%)" offset="0.816406"/><stop stop-opacity="1" stop-color="rgb(82.374573%, 39.810181%, 56.941223%)" offset="0.820312"/><stop stop-opacity="1" stop-color="rgb(82.525635%, 39.709473%, 56.481934%)" offset="0.824219"/><stop stop-opacity="1" stop-color="rgb(82.678223%, 39.610291%, 56.02417%)" offset="0.828125"/><stop stop-opacity="1" stop-color="rgb(82.829285%, 39.509583%, 55.56488%)" offset="0.832031"/><stop stop-opacity="1" stop-color="rgb(82.981873%, 39.4104%, 55.107117%)" offset="0.835938"/><stop stop-opacity="1" stop-color="rgb(83.132935%, 39.309692%, 54.649353%)" offset="0.839844"/><stop stop-opacity="1" stop-color="rgb(83.283997%, 39.21051%, 54.191589%)" offset="0.84375"/><stop stop-opacity="1" stop-color="rgb(83.435059%, 39.109802%, 53.7323%)" offset="0.847656"/><stop stop-opacity="1" stop-color="rgb(83.587646%, 39.01062%, 53.274536%)" offset="0.851562"/><stop stop-opacity="1" stop-color="rgb(83.738708%, 38.909912%, 52.815247%)" offset="0.855469"/><stop stop-opacity="1" stop-color="rgb(83.891296%, 38.81073%, 52.357483%)" offset="0.859375"/><stop stop-opacity="1" stop-color="rgb(84.042358%, 38.710022%, 51.898193%)" offset="0.863281"/><stop stop-opacity="1" stop-color="rgb(84.194946%, 38.61084%, 51.44043%)" offset="0.867188"/><stop stop-opacity="1" stop-color="rgb(84.346008%, 38.510132%, 50.98114%)" offset="0.871094"/><stop stop-opacity="1" stop-color="rgb(84.498596%, 38.41095%, 50.523376%)" offset="0.875"/><stop stop-opacity="1" stop-color="rgb(84.649658%, 38.310242%, 50.064087%)" offset="0.878906"/><stop stop-opacity="1" stop-color="rgb(84.802246%, 38.21106%, 49.606323%)" offset="0.882813"/><stop stop-opacity="1" stop-color="rgb(84.953308%, 38.110352%, 49.147034%)" offset="0.886719"/><stop stop-opacity="1" stop-color="rgb(85.10437%, 38.011169%, 48.68927%)" offset="0.890625"/><stop stop-opacity="1" stop-color="rgb(85.255432%, 37.910461%, 48.22998%)" offset="0.894531"/><stop stop-opacity="1" stop-color="rgb(85.40802%, 37.811279%, 47.772217%)" offset="0.898438"/><stop stop-opacity="1" stop-color="rgb(85.559082%, 37.710571%, 47.312927%)" offset="0.902344"/><stop stop-opacity="1" stop-color="rgb(85.71167%, 37.611389%, 46.855164%)" offset="0.90625"/><stop stop-opacity="1" stop-color="rgb(85.862732%, 37.510681%, 46.395874%)" offset="0.910156"/><stop stop-opacity="1" stop-color="rgb(86.01532%, 37.411499%, 45.93811%)" offset="0.914063"/><stop stop-opacity="1" stop-color="rgb(86.166382%, 37.310791%, 45.480347%)" offset="0.917969"/><stop stop-opacity="1" stop-color="rgb(86.31897%, 37.211609%, 45.022583%)" offset="0.921875"/><stop stop-opacity="1" stop-color="rgb(86.470032%, 37.110901%, 44.563293%)" offset="0.925781"/><stop stop-opacity="1" stop-color="rgb(86.62262%, 37.011719%, 44.10553%)" offset="0.929688"/><stop stop-opacity="1" stop-color="rgb(86.773682%, 36.911011%, 43.64624%)" offset="0.933594"/><stop stop-opacity="1" stop-color="rgb(86.924744%, 36.811829%, 43.188477%)" offset="0.9375"/><stop stop-opacity="1" stop-color="rgb(87.075806%, 36.711121%, 42.729187%)" offset="0.941406"/><stop stop-opacity="1" stop-color="rgb(87.228394%, 36.611938%, 42.271423%)" offset="0.945312"/><stop stop-opacity="1" stop-color="rgb(87.379456%, 36.51123%, 41.812134%)" offset="0.949219"/><stop stop-opacity="1" stop-color="rgb(87.532043%, 36.412048%, 41.35437%)" offset="0.953125"/><stop stop-opacity="1" stop-color="rgb(87.683105%, 36.31134%, 40.895081%)" offset="0.957031"/><stop stop-opacity="1" stop-color="rgb(87.835693%, 36.212158%, 40.437317%)" offset="0.960938"/><stop stop-opacity="1" stop-color="rgb(87.986755%, 36.11145%, 39.978027%)" offset="0.964844"/><stop stop-opacity="1" stop-color="rgb(88.139343%, 36.012268%, 39.520264%)" offset="0.96875"/><stop stop-opacity="1" stop-color="rgb(88.290405%, 35.91156%, 39.060974%)" offset="0.972656"/><stop stop-opacity="1" stop-color="rgb(88.442993%, 35.812378%, 38.60321%)" offset="0.976563"/><stop stop-opacity="1" stop-color="rgb(88.536072%, 35.749817%, 38.320923%)" offset="0.980469"/><stop stop-opacity="1" stop-color="rgb(88.62915%, 35.688782%, 38.038635%)" offset="0.984375"/><stop stop-opacity="1" stop-color="rgb(88.62915%, 35.688782%, 38.038635%)" offset="1"/></linearGradient></defs><g clip-path="url(#31ecefc7ec)"><g clip-path="url(#30fad7968d)"><path fill="url(#0f9f3b427f)" d="M 0.738281 9.234375 L 0.738281 74.75 L 66.253906 74.75 L 66.253906 9.234375 Z M 0.738281 9.234375 " fill-rule="nonzero"/></g></g></svg>